<svg xmlns="http://www.w3.org/2000/svg" width="927" height="462" viewBox="0 0 927 462" xmlns:v="https://vecta.io/nano"><defs><linearGradient x1="0.00925937355%" y1="49.9564685%" x2="99.9889659%" y2="49.9564685%" id="A"><stop stop-color="#8a36f1" offset="0%"/><stop stop-color="#ff6eff" offset="100%"/></linearGradient></defs><path d="M919.935 422.77l6.953-186.704c.27-10.605-3.69-20.877-11.002-28.542a39.72 39.72 0 0 0-27.962-12.3l-2.1-.37-67.12-3.884C570.22 172.452 344.234 110.813 148.57 5.477l-1.747-.923c-19.504-10.126-43.52-2.814-54.12 16.478L4.558 185.47c-10.12 19.55-2.838 43.606 16.41 54.213l1.578.955c174.837 92.34 363.73 155.71 558.6 188.895 70.425 12.418 143.1 21.62 218.027 27.602l77.163 4.21 2.1.37c10.682.455 21.1-3.417 28.906-10.743 7.67-7.2 12.184-17.14 12.57-27.647l.016-.553z" fill="url(#A)"/></svg>