<svg xmlns="http://www.w3.org/2000/svg" width="1306" height="2377" viewBox="0 0 1306 2377" xmlns:v="https://vecta.io/nano"><defs><linearGradient x1="37.5714305%" y1="7.4834936%" x2="59.8642207%" y2="94.6897361%" id="A"><stop stop-color="#ff6eff" offset="0%"/><stop stop-color="#d158fa" offset="24%"/><stop stop-color="#ab46f5" offset="49%"/><stop stop-color="#933af2" offset="68%"/><stop stop-color="#8a36f1" offset="80%"/></linearGradient></defs><path d="M1266.498 1882.904l-3.83-2.84c-265.056-166.52-449.188-403.193-563.143-722.74C599.35 874.63 556.578 527.094 572.49 123.342l.5-12.252.864-4.9c1.1-22.527-6.846-44.56-22.07-61.2a84.57 84.57 0 0 0-58.289-27.386L94.66.05C47.627-1.52 7.93 34.714 5.215 81.69l-.864 4.9c-20.76 481.962 32.86 906.325 158.636 1261.15 154.28 433.676 418.575 772.89 785.053 1006.455l11.137 7.045 3.83 2.84c40.104 24.54 92.46 12.646 118.02-26.814l211.712-337.17c24.9-39.643 13.197-91.956-26.24-117.193z" fill="url(#A)"/></svg>
