<svg xmlns="http://www.w3.org/2000/svg" width="1670" height="1010" viewBox="0 0 1670 1010" xmlns:v="https://vecta.io/nano"><defs><linearGradient x1="100.861295%" y1="60.0558589%" x2="1.65366796%" y2="42.363995%" id="A"><stop stop-color="#8a36f1" offset="22%"/><stop stop-color="#ff6eff" offset="100%"/></linearGradient></defs><path d="M1640.543 963.618l29.208-247.513c1.73-14.004-2.24-28.115-11.012-39.164a52.59 52.59 0 0 0-35.645-19.596l-2.8-.494C1294.064 618.625 615.026 354.75 278.754 27.1L268.67 17.15l-1.853-1.77c-21.123-20.64-54.905-20.487-75.844.343L15.67 191.274c-20.75 20.923-20.912 54.617-.363 75.735l2.553 1.894C398.847 650.106 1102.633 927.965 1502.323 998.44c26.6 4.7 51.922 8.433 75.968 11.23l2.8.494c29.166 3.208 55.56-17.458 59.45-46.547z" fill="url(#A)"/></svg>
